<svg version="1.1" viewBox="0.0 0.0 725.3333333333334 724.0" fill="none" stroke="none" stroke-linecap="square" stroke-miterlimit="10" xmlns:xlink="http://www.w3.org/1999/xlink" xmlns="http://www.w3.org/2000/svg"><clipPath id="p.0"><path d="m0 0l725.3333 0l0 724.0l-725.3333 0l0 -724.0z" clip-rule="nonzero"/></clipPath><g clip-path="url(#p.0)"><path fill="#000000" fill-opacity="0.0" d="m0 0l725.3333 0l0 724.0l-725.3333 0z" fill-rule="evenodd"/><path fill="#363636" d="m0.005249344 2.6614172l725.3228 0l0 714.6771l-725.3228 0z" fill-rule="evenodd"/><path stroke="#000000" stroke-width="1.0" stroke-linejoin="round" stroke-linecap="butt" d="m0.005249344 2.6614172l725.3228 0l0 714.6771l-725.3228 0z" fill-rule="evenodd"/><path fill="#000000" d="m945.4908 307.4882l163.55914 0l0 162.77167l-163.55914 0z" fill-rule="evenodd"/><path stroke="#000000" stroke-width="1.0" stroke-linejoin="round" stroke-linecap="butt" d="m945.4908 307.4882l163.55914 0l0 162.77167l-163.55914 0z" fill-rule="evenodd"/><path fill="#434343" d="m57.322083 118.94447l0 0c0 -6.726898 5.453232 -12.180122 12.18013 -12.180122l93.332 0c3.2303772 0 6.32843 1.2832565 8.612656 3.5674744c2.2842102 2.2842178 3.5674744 5.3822784 3.5674744 8.612648l0 87.61003c0 6.726898 -5.453232 12.18013 -12.18013 12.18013l-93.332 0c-6.726898 0 -12.18013 -5.453232 -12.18013 -12.18013z" fill-rule="evenodd"/><path stroke="#434343" stroke-width="1.0" stroke-linejoin="round" stroke-linecap="butt" d="m57.322083 118.94447l0 0c0 -6.726898 5.453232 -12.180122 12.18013 -12.180122l93.332 0c3.2303772 0 6.32843 1.2832565 8.612656 3.5674744c2.2842102 2.2842178 3.5674744 5.3822784 3.5674744 8.612648l0 87.61003c0 6.726898 -5.453232 12.18013 -12.18013 12.18013l-93.332 0c-6.726898 0 -12.18013 -5.453232 -12.18013 -12.18013z" fill-rule="evenodd"/><path fill="#434343" d="m175.01434 117.419846l17.788162 0l0 7.65609l-17.788162 0z" fill-rule="evenodd"/><path stroke="#434343" stroke-width="4.0" stroke-linejoin="round" stroke-linecap="butt" d="m175.01434 117.419846l17.788162 0l0 7.65609l-17.788162 0z" fill-rule="evenodd"/><path fill="#434343" d="m175.01434 137.22142l17.788162 0l0 7.656082l-17.788162 0z" fill-rule="evenodd"/><path stroke="#434343" stroke-width="4.0" stroke-linejoin="round" stroke-linecap="butt" d="m175.01434 137.22142l17.788162 0l0 7.656082l-17.788162 0z" fill-rule="evenodd"/><path fill="#434343" d="m175.01434 158.92145l17.788162 0l0 7.656082l-17.788162 0z" fill-rule="evenodd"/><path stroke="#434343" stroke-width="4.0" stroke-linejoin="round" stroke-linecap="butt" d="m175.01434 158.92145l17.788162 0l0 7.656082l-17.788162 0z" fill-rule="evenodd"/><path fill="#434343" d="m175.01434 178.72302l17.788162 0l0 7.656082l-17.788162 0z" fill-rule="evenodd"/><path stroke="#434343" stroke-width="4.0" stroke-linejoin="round" stroke-linecap="butt" d="m175.01434 178.72302l17.788162 0l0 7.656082l-17.788162 0z" fill-rule="evenodd"/><path fill="#434343" d="m175.01434 196.50941l17.788162 0l0 7.6560974l-17.788162 0z" fill-rule="evenodd"/><path stroke="#434343" stroke-width="4.0" stroke-linejoin="round" stroke-linecap="butt" d="m175.01434 196.50941l17.788162 0l0 7.6560974l-17.788162 0z" fill-rule="evenodd"/><path fill="#434343" d="m39.533928 119.37666l17.788155 0l0 7.65609l-17.788155 0z" fill-rule="evenodd"/><path stroke="#434343" stroke-width="4.0" stroke-linejoin="round" stroke-linecap="butt" d="m39.533928 119.37666l17.788155 0l0 7.65609l-17.788155 0z" fill-rule="evenodd"/><path fill="#434343" d="m39.533928 139.17824l17.788155 0l0 7.656082l-17.788155 0z" fill-rule="evenodd"/><path stroke="#434343" stroke-width="4.0" stroke-linejoin="round" stroke-linecap="butt" d="m39.533928 139.17824l17.788155 0l0 7.656082l-17.788155 0z" fill-rule="evenodd"/><path fill="#434343" d="m39.533928 160.87827l17.788155 0l0 7.656082l-17.788155 0z" fill-rule="evenodd"/><path stroke="#434343" stroke-width="4.0" stroke-linejoin="round" stroke-linecap="butt" d="m39.533928 160.87827l17.788155 0l0 7.656082l-17.788155 0z" fill-rule="evenodd"/><path fill="#434343" d="m39.533928 180.67984l17.788155 0l0 7.656082l-17.788155 0z" fill-rule="evenodd"/><path stroke="#434343" stroke-width="4.0" stroke-linejoin="round" stroke-linecap="butt" d="m39.533928 180.67984l17.788155 0l0 7.656082l-17.788155 0z" fill-rule="evenodd"/><path fill="#434343" d="m39.533928 198.46623l17.788155 0l0 7.6560974l-17.788155 0z" fill-rule="evenodd"/><path stroke="#434343" stroke-width="4.0" stroke-linejoin="round" stroke-linecap="butt" d="m39.533928 198.46623l17.788155 0l0 7.6560974l-17.788155 0z" fill-rule="evenodd"/><path fill="#434343" d="m161.13878 218.73463l0 17.156174l-7.9381256 0l0 -17.156174z" fill-rule="evenodd"/><path stroke="#434343" stroke-width="4.0" stroke-linejoin="round" stroke-linecap="butt" d="m161.13878 218.73463l0 17.156174l-7.9381256 0l0 -17.156174z" fill-rule="evenodd"/><path fill="#434343" d="m140.60777 218.73463l0 17.156174l-7.9381256 0l0 -17.156174z" fill-rule="evenodd"/><path stroke="#434343" stroke-width="4.0" stroke-linejoin="round" stroke-linecap="butt" d="m140.60777 218.73463l0 17.156174l-7.9381256 0l0 -17.156174z" fill-rule="evenodd"/><path fill="#434343" d="m118.108376 218.73463l0 17.156174l-7.938118 0l0 -17.156174z" fill-rule="evenodd"/><path stroke="#434343" stroke-width="4.0" stroke-linejoin="round" stroke-linecap="butt" d="m118.108376 218.73463l0 17.156174l-7.938118 0l0 -17.156174z" fill-rule="evenodd"/><path fill="#434343" d="m97.57737 218.73463l0 17.156174l-7.938118 0l0 -17.156174z" fill-rule="evenodd"/><path stroke="#434343" stroke-width="4.0" stroke-linejoin="round" stroke-linecap="butt" d="m97.57737 218.73463l0 17.156174l-7.938118 0l0 -17.156174z" fill-rule="evenodd"/><path fill="#434343" d="m79.13577 218.73463l0 17.156174l-7.938118 0l0 -17.156174z" fill-rule="evenodd"/><path stroke="#434343" stroke-width="4.0" stroke-linejoin="round" stroke-linecap="butt" d="m79.13577 218.73463l0 17.156174l-7.938118 0l0 -17.156174z" fill-rule="evenodd"/><path fill="#434343" d="m159.10988 89.60818l0 17.156174l-7.9381256 0l0 -17.156174z" fill-rule="evenodd"/><path stroke="#434343" stroke-width="4.0" stroke-linejoin="round" stroke-linecap="butt" d="m159.10988 89.60818l0 17.156174l-7.9381256 0l0 -17.156174z" fill-rule="evenodd"/><path fill="#434343" d="m138.57887 89.60818l0 17.156174l-7.9381104 0l0 -17.156174z" fill-rule="evenodd"/><path stroke="#434343" stroke-width="4.0" stroke-linejoin="round" stroke-linecap="butt" d="m138.57887 89.60818l0 17.156174l-7.9381104 0l0 -17.156174z" fill-rule="evenodd"/><path fill="#434343" d="m116.079475 89.60818l0 17.156174l-7.938118 0l0 -17.156174z" fill-rule="evenodd"/><path stroke="#434343" stroke-width="4.0" stroke-linejoin="round" stroke-linecap="butt" d="m116.079475 89.60818l0 17.156174l-7.938118 0l0 -17.156174z" fill-rule="evenodd"/><path fill="#434343" d="m95.54847 89.60818l0 17.156174l-7.938118 0l0 -17.156174z" fill-rule="evenodd"/><path stroke="#434343" stroke-width="4.0" stroke-linejoin="round" stroke-linecap="butt" d="m95.54847 89.60818l0 17.156174l-7.938118 0l0 -17.156174z" fill-rule="evenodd"/><path fill="#434343" d="m77.10687 89.60818l0 17.156174l-7.938118 0l0 -17.156174z" fill-rule="evenodd"/><path stroke="#434343" stroke-width="4.0" stroke-linejoin="round" stroke-linecap="butt" d="m77.10687 89.60818l0 17.156174l-7.938118 0l0 -17.156174z" fill-rule="evenodd"/><path fill="#434343" d="m320.8444 499.5967l0 0c0 -6.726898 5.453247 -12.180145 12.180145 -12.180145l93.332 0c3.2303467 0 6.32843 1.2832642 8.61264 3.567505c2.2842102 2.2842102 3.5674744 5.382263 3.5674744 8.61264l0 87.610016c0 6.7269287 -5.4532166 12.180115 -12.180115 12.180115l-93.332 0c-6.726898 0 -12.180145 -5.453186 -12.180145 -12.180115z" fill-rule="evenodd"/><path stroke="#434343" stroke-width="1.0" stroke-linejoin="round" stroke-linecap="butt" d="m320.8444 499.5967l0 0c0 -6.726898 5.453247 -12.180145 12.180145 -12.180145l93.332 0c3.2303467 0 6.32843 1.2832642 8.61264 3.567505c2.2842102 2.2842102 3.5674744 5.382263 3.5674744 8.61264l0 87.610016c0 6.7269287 -5.4532166 12.180115 -12.180115 12.180115l-93.332 0c-6.726898 0 -12.180145 -5.453186 -12.180145 -12.180115z" fill-rule="evenodd"/><path fill="#434343" d="m438.53665 498.07208l17.788147 0l0 7.6560974l-17.788147 0z" fill-rule="evenodd"/><path stroke="#434343" stroke-width="4.0" stroke-linejoin="round" stroke-linecap="butt" d="m438.53665 498.07208l17.788147 0l0 7.6560974l-17.788147 0z" fill-rule="evenodd"/><path fill="#434343" d="m438.53665 517.87366l17.788147 0l0 7.656067l-17.788147 0z" fill-rule="evenodd"/><path stroke="#434343" stroke-width="4.0" stroke-linejoin="round" stroke-linecap="butt" d="m438.53665 517.87366l17.788147 0l0 7.656067l-17.788147 0z" fill-rule="evenodd"/><path fill="#434343" d="m438.53665 539.57367l17.788147 0l0 7.656128l-17.788147 0z" fill-rule="evenodd"/><path stroke="#434343" stroke-width="4.0" stroke-linejoin="round" stroke-linecap="butt" d="m438.53665 539.57367l17.788147 0l0 7.656128l-17.788147 0z" fill-rule="evenodd"/><path fill="#434343" d="m438.53665 559.37524l17.788147 0l0 7.656067l-17.788147 0z" fill-rule="evenodd"/><path stroke="#434343" stroke-width="4.0" stroke-linejoin="round" stroke-linecap="butt" d="m438.53665 559.37524l17.788147 0l0 7.656067l-17.788147 0z" fill-rule="evenodd"/><path fill="#434343" d="m438.53665 577.1616l17.788147 0l0 7.656128l-17.788147 0z" fill-rule="evenodd"/><path stroke="#434343" stroke-width="4.0" stroke-linejoin="round" stroke-linecap="butt" d="m438.53665 577.1616l17.788147 0l0 7.656128l-17.788147 0z" fill-rule="evenodd"/><path fill="#434343" d="m303.05624 500.0289l17.788147 0l0 7.6560974l-17.788147 0z" fill-rule="evenodd"/><path stroke="#434343" stroke-width="4.0" stroke-linejoin="round" stroke-linecap="butt" d="m303.05624 500.0289l17.788147 0l0 7.6560974l-17.788147 0z" fill-rule="evenodd"/><path fill="#434343" d="m303.05624 519.83044l17.788147 0l0 7.656128l-17.788147 0z" fill-rule="evenodd"/><path stroke="#434343" stroke-width="4.0" stroke-linejoin="round" stroke-linecap="butt" d="m303.05624 519.83044l17.788147 0l0 7.656128l-17.788147 0z" fill-rule="evenodd"/><path fill="#434343" d="m303.05624 541.5305l17.788147 0l0 7.656067l-17.788147 0z" fill-rule="evenodd"/><path stroke="#434343" stroke-width="4.0" stroke-linejoin="round" stroke-linecap="butt" d="m303.05624 541.5305l17.788147 0l0 7.656067l-17.788147 0z" fill-rule="evenodd"/><path fill="#434343" d="m303.05624 561.3321l17.788147 0l0 7.656067l-17.788147 0z" fill-rule="evenodd"/><path stroke="#434343" stroke-width="4.0" stroke-linejoin="round" stroke-linecap="butt" d="m303.05624 561.3321l17.788147 0l0 7.656067l-17.788147 0z" fill-rule="evenodd"/><path fill="#434343" d="m303.05624 579.11847l17.788147 0l0 7.656067l-17.788147 0z" fill-rule="evenodd"/><path stroke="#434343" stroke-width="4.0" stroke-linejoin="round" stroke-linecap="butt" d="m303.05624 579.11847l17.788147 0l0 7.656067l-17.788147 0z" fill-rule="evenodd"/><path fill="#434343" d="m424.66107 599.38684l0 17.156189l-7.9381104 0l0 -17.156189z" fill-rule="evenodd"/><path stroke="#434343" stroke-width="4.0" stroke-linejoin="round" stroke-linecap="butt" d="m424.66107 599.38684l0 17.156189l-7.9381104 0l0 -17.156189z" fill-rule="evenodd"/><path fill="#434343" d="m404.13007 599.38684l0 17.156189l-7.9381104 0l0 -17.156189z" fill-rule="evenodd"/><path stroke="#434343" stroke-width="4.0" stroke-linejoin="round" stroke-linecap="butt" d="m404.13007 599.38684l0 17.156189l-7.9381104 0l0 -17.156189z" fill-rule="evenodd"/><path fill="#434343" d="m381.63068 599.38684l0 17.156189l-7.9381104 0l0 -17.156189z" fill-rule="evenodd"/><path stroke="#434343" stroke-width="4.0" stroke-linejoin="round" stroke-linecap="butt" d="m381.63068 599.38684l0 17.156189l-7.9381104 0l0 -17.156189z" fill-rule="evenodd"/><path fill="#434343" d="m361.09967 599.38684l0 17.156189l-7.9381104 0l0 -17.156189z" fill-rule="evenodd"/><path stroke="#434343" stroke-width="4.0" stroke-linejoin="round" stroke-linecap="butt" d="m361.09967 599.38684l0 17.156189l-7.9381104 0l0 -17.156189z" fill-rule="evenodd"/><path fill="#434343" d="m342.65808 599.38684l0 17.156189l-7.9381104 0l0 -17.156189z" fill-rule="evenodd"/><path stroke="#434343" stroke-width="4.0" stroke-linejoin="round" stroke-linecap="butt" d="m342.65808 599.38684l0 17.156189l-7.9381104 0l0 -17.156189z" fill-rule="evenodd"/><path fill="#434343" d="m422.63217 470.2604l0 17.156158l-7.9381104 0l0 -17.156158z" fill-rule="evenodd"/><path stroke="#434343" stroke-width="4.0" stroke-linejoin="round" stroke-linecap="butt" d="m422.63217 470.2604l0 17.156158l-7.9381104 0l0 -17.156158z" fill-rule="evenodd"/><path fill="#434343" d="m402.1012 470.2604l0 17.156158l-7.938141 0l0 -17.156158z" fill-rule="evenodd"/><path stroke="#434343" stroke-width="4.0" stroke-linejoin="round" stroke-linecap="butt" d="m402.1012 470.2604l0 17.156158l-7.938141 0l0 -17.156158z" fill-rule="evenodd"/><path fill="#434343" d="m379.60178 470.2604l0 17.156158l-7.9381104 0l0 -17.156158z" fill-rule="evenodd"/><path stroke="#434343" stroke-width="4.0" stroke-linejoin="round" stroke-linecap="butt" d="m379.60178 470.2604l0 17.156158l-7.9381104 0l0 -17.156158z" fill-rule="evenodd"/><path fill="#434343" d="m359.07077 470.2604l0 17.156158l-7.9381104 0l0 -17.156158z" fill-rule="evenodd"/><path stroke="#434343" stroke-width="4.0" stroke-linejoin="round" stroke-linecap="butt" d="m359.07077 470.2604l0 17.156158l-7.9381104 0l0 -17.156158z" fill-rule="evenodd"/><path fill="#434343" d="m340.62918 470.2604l0 17.156158l-7.9381104 0l0 -17.156158z" fill-rule="evenodd"/><path stroke="#434343" stroke-width="4.0" stroke-linejoin="round" stroke-linecap="butt" d="m340.62918 470.2604l0 17.156158l-7.9381104 0l0 -17.156158z" fill-rule="evenodd"/><path fill="#434343" d="m539.43494 289.49698l0 0c0 -6.726898 5.453247 -12.180145 12.180115 -12.180145l93.33203 0c3.2303467 0 6.32843 1.2832642 8.612671 3.5674744c2.2841797 2.2842407 3.5674438 5.3822937 3.5674438 8.612671l0 87.610016c0 6.726898 -5.453247 12.180145 -12.180115 12.180145l-93.33203 0c-6.7268677 0 -12.180115 -5.453247 -12.180115 -12.180145z" fill-rule="evenodd"/><path stroke="#434343" stroke-width="1.0" stroke-linejoin="round" stroke-linecap="butt" d="m539.43494 289.49698l0 0c0 -6.726898 5.453247 -12.180145 12.180115 -12.180145l93.33203 0c3.2303467 0 6.32843 1.2832642 8.612671 3.5674744c2.2841797 2.2842407 3.5674438 5.3822937 3.5674438 8.612671l0 87.610016c0 6.726898 -5.453247 12.180145 -12.180115 12.180145l-93.33203 0c-6.7268677 0 -12.180115 -5.453247 -12.180115 -12.180145z" fill-rule="evenodd"/><path fill="#434343" d="m657.1272 287.97235l17.788147 0l0 7.656067l-17.788147 0z" fill-rule="evenodd"/><path stroke="#434343" stroke-width="4.0" stroke-linejoin="round" stroke-linecap="butt" d="m657.1272 287.97235l17.788147 0l0 7.656067l-17.788147 0z" fill-rule="evenodd"/><path fill="#434343" d="m657.1272 307.77393l17.788147 0l0 7.656067l-17.788147 0z" fill-rule="evenodd"/><path stroke="#434343" stroke-width="4.0" stroke-linejoin="round" stroke-linecap="butt" d="m657.1272 307.77393l17.788147 0l0 7.656067l-17.788147 0z" fill-rule="evenodd"/><path fill="#434343" d="m657.1272 329.47394l17.788147 0l0 7.6560974l-17.788147 0z" fill-rule="evenodd"/><path stroke="#434343" stroke-width="4.0" stroke-linejoin="round" stroke-linecap="butt" d="m657.1272 329.47394l17.788147 0l0 7.6560974l-17.788147 0z" fill-rule="evenodd"/><path fill="#434343" d="m657.1272 349.2755l17.788147 0l0 7.6560974l-17.788147 0z" fill-rule="evenodd"/><path stroke="#434343" stroke-width="4.0" stroke-linejoin="round" stroke-linecap="butt" d="m657.1272 349.2755l17.788147 0l0 7.6560974l-17.788147 0z" fill-rule="evenodd"/><path fill="#434343" d="m657.1272 367.06192l17.788147 0l0 7.656067l-17.788147 0z" fill-rule="evenodd"/><path stroke="#434343" stroke-width="4.0" stroke-linejoin="round" stroke-linecap="butt" d="m657.1272 367.06192l17.788147 0l0 7.656067l-17.788147 0z" fill-rule="evenodd"/><path fill="#434343" d="m521.6468 289.92917l17.788147 0l0 7.656067l-17.788147 0z" fill-rule="evenodd"/><path stroke="#434343" stroke-width="4.0" stroke-linejoin="round" stroke-linecap="butt" d="m521.6468 289.92917l17.788147 0l0 7.656067l-17.788147 0z" fill-rule="evenodd"/><path fill="#434343" d="m521.6468 309.7307l17.788147 0l0 7.6560974l-17.788147 0z" fill-rule="evenodd"/><path stroke="#434343" stroke-width="4.0" stroke-linejoin="round" stroke-linecap="butt" d="m521.6468 309.7307l17.788147 0l0 7.6560974l-17.788147 0z" fill-rule="evenodd"/><path fill="#434343" d="m521.6468 331.43076l17.788147 0l0 7.6560974l-17.788147 0z" fill-rule="evenodd"/><path stroke="#434343" stroke-width="4.0" stroke-linejoin="round" stroke-linecap="butt" d="m521.6468 331.43076l17.788147 0l0 7.6560974l-17.788147 0z" fill-rule="evenodd"/><path fill="#434343" d="m521.6468 351.23233l17.788147 0l0 7.6560974l-17.788147 0z" fill-rule="evenodd"/><path stroke="#434343" stroke-width="4.0" stroke-linejoin="round" stroke-linecap="butt" d="m521.6468 351.23233l17.788147 0l0 7.6560974l-17.788147 0z" fill-rule="evenodd"/><path fill="#434343" d="m521.6468 369.01874l17.788147 0l0 7.656067l-17.788147 0z" fill-rule="evenodd"/><path stroke="#434343" stroke-width="4.0" stroke-linejoin="round" stroke-linecap="butt" d="m521.6468 369.01874l17.788147 0l0 7.656067l-17.788147 0z" fill-rule="evenodd"/><path fill="#434343" d="m643.25165 389.28714l0 17.156158l-7.9381104 0l0 -17.156158z" fill-rule="evenodd"/><path stroke="#434343" stroke-width="4.0" stroke-linejoin="round" stroke-linecap="butt" d="m643.25165 389.28714l0 17.156158l-7.9381104 0l0 -17.156158z" fill-rule="evenodd"/><path fill="#434343" d="m622.72064 389.28714l0 17.156158l-7.9381104 0l0 -17.156158z" fill-rule="evenodd"/><path stroke="#434343" stroke-width="4.0" stroke-linejoin="round" stroke-linecap="butt" d="m622.72064 389.28714l0 17.156158l-7.9381104 0l0 -17.156158z" fill-rule="evenodd"/><path fill="#434343" d="m600.22125 389.28714l0 17.156158l-7.9381104 0l0 -17.156158z" fill-rule="evenodd"/><path stroke="#434343" stroke-width="4.0" stroke-linejoin="round" stroke-linecap="butt" d="m600.22125 389.28714l0 17.156158l-7.9381104 0l0 -17.156158z" fill-rule="evenodd"/><path fill="#434343" d="m579.69025 389.28714l0 17.156158l-7.9381104 0l0 -17.156158z" fill-rule="evenodd"/><path stroke="#434343" stroke-width="4.0" stroke-linejoin="round" stroke-linecap="butt" d="m579.69025 389.28714l0 17.156158l-7.9381104 0l0 -17.156158z" fill-rule="evenodd"/><path fill="#434343" d="m561.24866 389.28714l0 17.156158l-7.9381714 0l0 -17.156158z" fill-rule="evenodd"/><path stroke="#434343" stroke-width="4.0" stroke-linejoin="round" stroke-linecap="butt" d="m561.24866 389.28714l0 17.156158l-7.9381714 0l0 -17.156158z" fill-rule="evenodd"/><path fill="#434343" d="m641.2227 260.16068l0 17.156158l-7.9381104 0l0 -17.156158z" fill-rule="evenodd"/><path stroke="#434343" stroke-width="4.0" stroke-linejoin="round" stroke-linecap="butt" d="m641.2227 260.16068l0 17.156158l-7.9381104 0l0 -17.156158z" fill-rule="evenodd"/><path fill="#434343" d="m620.6917 260.16068l0 17.156158l-7.9381104 0l0 -17.156158z" fill-rule="evenodd"/><path stroke="#434343" stroke-width="4.0" stroke-linejoin="round" stroke-linecap="butt" d="m620.6917 260.16068l0 17.156158l-7.9381104 0l0 -17.156158z" fill-rule="evenodd"/><path fill="#434343" d="m598.1923 260.16068l0 17.156158l-7.9381104 0l0 -17.156158z" fill-rule="evenodd"/><path stroke="#434343" stroke-width="4.0" stroke-linejoin="round" stroke-linecap="butt" d="m598.1923 260.16068l0 17.156158l-7.9381104 0l0 -17.156158z" fill-rule="evenodd"/><path fill="#434343" d="m577.6613 260.16068l0 17.156158l-7.9381104 0l0 -17.156158z" fill-rule="evenodd"/><path stroke="#434343" stroke-width="4.0" stroke-linejoin="round" stroke-linecap="butt" d="m577.6613 260.16068l0 17.156158l-7.9381104 0l0 -17.156158z" fill-rule="evenodd"/><path fill="#434343" d="m559.2197 260.16068l0 17.156158l-7.9381104 0l0 -17.156158z" fill-rule="evenodd"/><path stroke="#434343" stroke-width="4.0" stroke-linejoin="round" stroke-linecap="butt" d="m559.2197 260.16068l0 17.156158l-7.9381104 0l0 -17.156158z" fill-rule="evenodd"/><path fill="#000000" fill-opacity="0.0" d="m192.8025 121.247894l164.42189 0l0 233.82678l164.4285 0" fill-rule="evenodd"/><path stroke="#434343" stroke-width="8.0" stroke-linejoin="round" stroke-linecap="butt" d="m192.8025 121.247894l164.42189 0l0 233.82678l164.4285 0" fill-rule="evenodd"/><path fill="#000000" fill-opacity="0.0" d="m192.8025 141.04947l143.84251 0l0 329.19684" fill-rule="evenodd"/><path stroke="#434343" stroke-width="8.0" stroke-linejoin="round" stroke-linecap="butt" d="m192.8025 141.04947l143.84251 0l0 329.19684" fill-rule="evenodd"/><path fill="#000000" fill-opacity="0.0" d="m192.8025 162.7495l76.531296 0l0 341.10236l33.73642 0" fill-rule="evenodd"/><path stroke="#434343" stroke-width="8.0" stroke-linejoin="round" stroke-linecap="butt" d="m192.8025 162.7495l76.531296 0l0 341.10236l33.73642 0" fill-rule="evenodd"/><path fill="#000000" fill-opacity="0.0" d="m192.8025 182.55106l28.53067 0l0 362.80313l81.737045 0" fill-rule="evenodd"/><path stroke="#434343" stroke-width="8.0" stroke-linejoin="round" stroke-linecap="butt" d="m192.8025 182.55106l28.53067 0l0 362.80313l81.737045 0" fill-rule="evenodd"/><path fill="#000000" fill-opacity="0.0" d="m114.13931 235.89081l0 347.0551l188.91339 0" fill-rule="evenodd"/><path stroke="#434343" stroke-width="8.0" stroke-linejoin="round" stroke-linecap="butt" d="m114.13931 235.89081l0 347.0551l188.91339 0" fill-rule="evenodd"/><path fill="#000000" fill-opacity="0.0" d="m155.14082 89.60818l0 -25.001015l254.1924 0l0 270.6388l112.3273 0" fill-rule="evenodd"/><path stroke="#434343" stroke-width="8.0" stroke-linejoin="round" stroke-linecap="butt" d="m155.14082 89.60818l0 -25.001015l254.1924 0l0 270.6388l112.3273 0" fill-rule="evenodd"/><path fill="#000000" fill-opacity="0.0" d="m91.579414 89.60818l0 -61.608208l525.13385 0l0 232.1594" fill-rule="evenodd"/><path stroke="#434343" stroke-width="8.0" stroke-linejoin="round" stroke-linecap="butt" d="m91.579414 89.60818l0 -61.608208l525.13385 0l0 232.1594" fill-rule="evenodd"/><path fill="#000000" fill-opacity="0.0" d="m557.2796 406.4433l0 31.908722l-138.6142 0l0 31.902313" fill-rule="evenodd"/><path stroke="#434343" stroke-width="8.0" stroke-linejoin="round" stroke-linecap="butt" d="m557.2796 406.4433l0 31.908722l-138.6142 0l0 31.902313" fill-rule="evenodd"/><path fill="#000000" fill-opacity="0.0" d="m596.2522 406.4433l0 136.94489l-139.93704 0" fill-rule="evenodd"/><path stroke="#434343" stroke-width="8.0" stroke-linejoin="round" stroke-linecap="butt" d="m596.2522 406.4433l0 136.94489l-139.93704 0" fill-rule="evenodd"/><path fill="#000000" fill-opacity="0.0" d="m639.2826 406.4433l0 235.10077l-239.11813 0l0 -24.99054" fill-rule="evenodd"/><path stroke="#434343" stroke-width="8.0" stroke-linejoin="round" stroke-linecap="butt" d="m639.2826 406.4433l0 235.10077l-239.11813 0l0 -24.99054" fill-rule="evenodd"/><path fill="#000000" fill-opacity="0.0" d="m521.6468 372.84677l-146.01575 0l0 97.41733" fill-rule="evenodd"/><path stroke="#434343" stroke-width="8.0" stroke-linejoin="round" stroke-linecap="butt" d="m521.6468 372.84677l-146.01575 0l0 97.41733" fill-rule="evenodd"/><path fill="#e69138" d="m663.6087 229.98663l0 0c20.831238 0 37.71826 19.77452 37.71826 44.167633l0 0c0 24.393097 -16.887024 44.167603 -37.71826 44.167603l0 0c-20.831238 0 -37.718323 -19.774506 -37.718323 -44.167603l0 0c0 -24.393112 16.887085 -44.167633 37.718323 -44.167633z" fill-rule="evenodd"/><path fill="#e69138" d="m513.74603 90.13105l0 0c20.831238 0 37.718323 19.77452 37.718323 44.167625l0 0c0 24.393097 -16.887085 44.167618 -37.718323 44.167618l0 0c-20.831238 0 -37.718292 -19.77452 -37.718292 -44.167618l0 0c0 -24.393105 16.887054 -44.167625 37.718292 -44.167625z" fill-rule="evenodd"/><path fill="#e69138" d="m564.6462 343.6555l0 0c20.82544 0 37.707825 19.776642 37.707825 44.172333l0 0c0 24.39569 -16.882385 44.172302 -37.707825 44.172302l0 0c-20.8255 0 -37.707825 -19.776611 -37.707825 -44.172302l0 0c0 -24.39569 16.882324 -44.172333 37.707825 -44.172333z" fill-rule="evenodd"/><path fill="#000000" fill-opacity="0.0" d="m360.41937 -12.426111l302.6477 285.2528" fill-rule="evenodd"/><path stroke="#e69138" stroke-width="24.0" stroke-linejoin="round" stroke-linecap="butt" d="m360.41937 -12.426111l302.6477 285.2528" fill-rule="evenodd"/><path fill="#000000" fill-opacity="0.0" d="m518.3389 123.81069l41.75348 249.23593" fill-rule="evenodd"/><path stroke="#e69138" stroke-width="24.0" stroke-linejoin="round" stroke-linecap="butt" d="m518.3389 123.81069l41.75348 249.23593" fill-rule="evenodd"/><path fill="#6aa84f" d="m-276.2455 143.81581l111.902985 -124.503845l-2.7583466 55.79987l-60.737106 67.57643l54.673126 55.09465l-2.3500366 47.540115z" fill-rule="evenodd"/><path stroke="#000000" stroke-width="8.0" stroke-linejoin="round" stroke-linecap="butt" d="m-276.2455 143.81581l111.902985 -124.503845l-2.7583466 55.79987l-60.737106 67.57643l54.673126 55.09465l-2.3500366 47.540115z" fill-rule="evenodd"/><path fill="#6aa84f" d="m247.00264 213.67474l-159.08662 150.86615l1.7483139 -76.14615l85.89297 -81.45465l-81.81174 -96.30011l1.7295151 -75.327446z" fill-rule="evenodd"/><path stroke="#363636" stroke-width="8.0" stroke-linejoin="round" stroke-linecap="butt" d="m247.00264 213.67474l-159.08662 150.86615l1.7483139 -76.14615l85.89297 -81.45465l-81.81174 -96.30011l1.7295151 -75.327446z" fill-rule="evenodd"/><path fill="#666666" fill-opacity="0.5443" d="m209.9476 394.65097l138.0568 0l0 285.87613l-138.0568 0z" fill-rule="evenodd"/><path fill="#000000" fill-opacity="0.0" d="m379.7774 394.65097l0 0c10.385864 0 20.346375 4.125763 27.690308 11.469696c7.343933 7.343933 11.469696 17.304413 11.469696 27.690308l0 64.61807c0 21.627472 17.532532 39.160004 39.160004 39.160004l0 0c-21.627472 0 -39.160004 17.532532 -39.160004 39.159973l0 64.6181c0 21.627441 -17.532532 39.159973 -39.160004 39.159973z" fill-rule="evenodd"/><path fill="#000000" fill-opacity="0.0" d="m379.7774 394.65097l0 0c10.385864 0 20.346375 4.125763 27.690308 11.469696c7.343933 7.343933 11.469696 17.304413 11.469696 27.690308l0 64.61807c0 21.627472 17.532532 39.160004 39.160004 39.160004l0 0c-21.627472 0 -39.160004 17.532532 -39.160004 39.159973l0 64.6181c0 21.627441 -17.532532 39.159973 -39.160004 39.159973" fill-rule="evenodd"/><path stroke="#1155cc" stroke-width="24.0" stroke-linejoin="round" stroke-linecap="butt" d="m379.7774 394.65097l0 0c10.385864 0 20.346375 4.125763 27.690308 11.469696c7.343933 7.343933 11.469696 17.304413 11.469696 27.690308l0 64.61807c0 21.627472 17.532532 39.160004 39.160004 39.160004l0 0c-21.627472 0 -39.160004 17.532532 -39.160004 39.159973l0 64.6181c0 21.627441 -17.532532 39.159973 -39.160004 39.159973" fill-rule="evenodd"/><path fill="#000000" fill-opacity="0.0" d="m169.90057 680.5271l0 0c-10.3858795 0 -20.346375 -4.1257324 -27.690308 -11.469666c-7.343918 -7.343933 -11.469696 -17.304443 -11.469696 -27.690308l0 -64.6181c0 -21.627441 -17.532524 -39.159973 -39.159996 -39.159973l0 0c21.627472 0 39.159996 -17.532532 39.159996 -39.160004l0 -64.61807c0 -21.627472 17.532532 -39.160004 39.160004 -39.160004z" fill-rule="evenodd"/><path fill="#000000" fill-opacity="0.0" d="m169.90057 680.5271l0 0c-10.3858795 0 -20.346375 -4.1257324 -27.690308 -11.469666c-7.343918 -7.343933 -11.469696 -17.304443 -11.469696 -27.690308l0 -64.6181c0 -21.627441 -17.532524 -39.159973 -39.159996 -39.159973l0 0c21.627472 0 39.159996 -17.532532 39.159996 -39.160004l0 -64.61807c0 -21.627472 17.532532 -39.160004 39.160004 -39.160004" fill-rule="evenodd"/><path stroke="#1155cc" stroke-width="24.0" stroke-linejoin="round" stroke-linecap="butt" d="m169.90057 680.5271l0 0c-10.3858795 0 -20.346375 -4.1257324 -27.690308 -11.469666c-7.343918 -7.343933 -11.469696 -17.304443 -11.469696 -27.690308l0 -64.6181c0 -21.627441 -17.532524 -39.159973 -39.159996 -39.159973l0 0c21.627472 0 39.159996 -17.532532 39.159996 -39.160004l0 -64.61807c0 -21.627472 17.532532 -39.160004 39.160004 -39.160004" fill-rule="evenodd"/></g></svg>